<?xml version="1.0" encoding="UTF-8" standalone="no"?>
<!DOCTYPE svg PUBLIC "-//W3C//DTD SVG 1.1//EN" "http://www.w3.org/Graphics/SVG/1.1/DTD/svg11.dtd">
<svg width="100%" height="100%" viewBox="0 0 351 351" version="1.1" xmlns="http://www.w3.org/2000/svg" xmlns:xlink="http://www.w3.org/1999/xlink" xml:space="preserve" xmlns:serif="http://www.serif.com/" style="fill-rule:evenodd;clip-rule:evenodd;stroke-linejoin:round;stroke-miterlimit:2;">
    <g transform="matrix(-0.877064,0,0,0.908074,1240.17,-744.702)">
        <path d="M1079.54,1206.4C1078.13,1206.55 1076.72,1206.1 1075.66,1205.15C1074.6,1204.2 1074,1202.85 1074,1201.43C1074,1171.34 1074,1028.39 1074,997.074C1074,995.579 1074.67,994.163 1075.82,993.214C1076.98,992.264 1078.49,991.88 1079.96,992.167C1095.48,995.206 1136.86,1003.31 1149.96,1005.87C1152.31,1006.33 1154,1008.39 1154,1010.78C1154,1027.92 1154,1093.55 1154,1110.82C1154,1113.24 1155.74,1115.31 1158.12,1115.74C1185.29,1120.61 1339.84,1148.32 1409.71,1160.85C1412.16,1161.29 1413.91,1163.46 1413.83,1165.95C1413.74,1168.43 1411.84,1170.48 1409.37,1170.74C1325.6,1179.8 1116.25,1202.43 1079.54,1206.4ZM1274,982.13C1274,979.733 1272.3,977.673 1269.94,977.22C1239.6,971.384 1048.4,934.616 1018.06,928.78C1015.7,928.327 1014,926.267 1014,923.87C1014,920.715 1014,916.353 1014,913C1014,910.239 1016.24,908 1019,908C1030.3,908 1057.7,908 1069,908C1071.76,908 1074,905.761 1074,903L1074,825.09C1074,823.357 1074.9,821.748 1076.37,820.837C1077.85,819.926 1079.69,819.843 1081.24,820.618C1098.23,829.114 1140.09,850.045 1151.24,855.618C1152.93,856.465 1154,858.196 1154,860.09C1154,868.618 1154,892.541 1154,903C1154,905.761 1156.24,908 1159,908C1178.52,908 1249.48,908 1269,908C1271.76,908 1274,905.761 1274,903C1274,892.541 1274,868.618 1274,860.09C1274,858.196 1275.07,856.465 1276.76,855.618C1287.91,850.045 1329.77,829.114 1346.76,820.618C1348.31,819.843 1350.15,819.926 1351.63,820.837C1353.1,821.748 1354,823.357 1354,825.09C1354,843.49 1354,888.033 1354,903C1354,905.761 1356.24,908 1359,908L1409,908C1411.76,908 1414,910.239 1414,913C1414,929.332 1414,981.082 1414,998.901C1414,1000.4 1413.33,1001.82 1412.17,1002.77C1411.01,1003.72 1409.49,1004.1 1408.02,1003.8C1396.53,1001.5 1371.47,996.495 1359.98,994.196C1358.51,993.902 1356.99,994.283 1355.83,995.232C1354.67,996.182 1354,997.601 1354,999.099L1354,1090.94C1354,1092.44 1353.33,1093.85 1352.18,1094.8C1351.03,1095.75 1349.52,1096.14 1348.05,1095.85C1324.47,1091.31 1237.86,1074.6 1218.05,1070.78C1215.7,1070.33 1214,1068.27 1214,1065.87C1214,1056.75 1214,1034.84 1214,1024.16C1214,1022.67 1214.67,1021.26 1215.82,1020.31C1216.96,1019.36 1218.48,1018.97 1219.94,1019.25C1231.43,1021.46 1256.57,1026.28 1268.06,1028.49C1269.52,1028.77 1271.04,1028.38 1272.18,1027.43C1273.33,1026.48 1274,1025.07 1274,1023.58C1274,1012.95 1274,991.212 1274,982.13Z" style="fill:white;"/>
    </g>
</svg>
